<?xml version="1.0" standalone="no"?>
<!DOCTYPE svg PUBLIC "-//W3C//DTD SVG 20010904//EN"
 "http://www.w3.org/TR/2001/REC-SVG-20010904/DTD/svg10.dtd">
<svg version="1.0" xmlns="http://www.w3.org/2000/svg"
 width="700.000000pt" height="700.000000pt" viewBox="0 0 700.000000 700.000000"
 preserveAspectRatio="xMidYMid meet">
<metadata>
Created by potrace 1.14, written by Peter Selinger 2001-2017
</metadata>
<g transform="translate(0.000000,700.000000) scale(0.100000,-0.100000)"
fill="#000000" stroke="none">
<path d="M3278 6995 c-1 -1 -42 -5 -89 -9 -47 -4 -95 -8 -106 -10 -11 -3 -44
-7 -74 -11 -312 -37 -711 -158 -1024 -311 -180 -87 -448 -247 -555 -331 -8 -6
-51 -40 -95 -74 -342 -266 -650 -623 -875 -1014 -47 -83 -170 -327 -170 -340
0 -3 -9 -24 -20 -48 -57 -123 -157 -435 -186 -582 -2 -11 -10 -54 -19 -95 -8
-41 -17 -90 -20 -107 -3 -18 -7 -46 -10 -61 -3 -16 -7 -55 -11 -88 -3 -32 -8
-75 -10 -94 -10 -64 -11 -524 -3 -605 5 -44 11 -109 15 -145 4 -54 41 -263 57
-335 72 -304 163 -558 297 -820 59 -116 165 -302 179 -315 4 -3 27 -36 52 -75
150 -228 399 -503 634 -700 121 -102 329 -255 345 -255 5 0 10 -4 10 -10 0 -5
4 -10 10 -10 5 0 40 -19 77 -43 245 -157 741 -364 962 -402 19 -3 37 -8 41
-10 3 -2 17 -6 31 -9 13 -2 49 -10 79 -16 30 -6 66 -13 80 -16 14 -2 36 -6 50
-9 14 -3 48 -7 75 -11 28 -3 61 -7 75 -10 151 -26 656 -25 850 2 19 3 51 7 70
10 406 56 833 199 1188 398 125 69 142 80 252 153 547 364 997 898 1259 1493
18 41 39 89 47 105 43 94 147 428 170 548 2 10 5 26 8 35 3 9 7 33 10 52 3 19
8 46 11 60 2 13 7 42 10 65 3 22 8 47 10 55 2 8 7 42 10 75 4 33 9 74 11 90 3
17 6 143 8 280 4 251 -2 355 -29 550 -1 11 -6 43 -10 70 -3 28 -20 111 -36
185 -116 527 -353 1021 -690 1440 -423 525 -981 915 -1614 1128 -168 57 -420
119 -555 137 -19 3 -46 7 -60 10 -13 2 -52 7 -86 11 -33 3 -74 8 -90 10 -33 5
-540 14 -546 9z"/>
</g>
</svg>
