<svg width="1899" height="500" viewBox="0 0 1899 500" fill="none" xmlns="http://www.w3.org/2000/svg">
<path d="M454.96 281.256C454.96 270.312 456.688 260.04 460.144 250.44C463.792 240.648 468.976 232.2 475.696 225.096C482.416 217.8 490.576 212.04 500.176 207.816C509.776 203.592 520.72 201.48 533.008 201.48C541.072 201.48 548.464 202.248 555.184 203.784C561.904 205.128 568.432 207.144 574.768 209.832L565.84 244.104C561.808 242.568 557.392 241.224 552.592 240.072C547.792 238.92 542.416 238.344 536.464 238.344C523.792 238.344 514.288 242.28 507.952 250.152C501.808 258.024 498.736 268.392 498.736 281.256C498.736 294.888 501.616 305.448 507.376 312.936C513.328 320.424 523.6 324.168 538.192 324.168C543.376 324.168 548.944 323.688 554.896 322.728C560.848 321.768 566.32 320.232 571.312 318.12L577.36 353.256C572.368 355.368 566.128 357.192 558.64 358.728C551.152 360.264 542.896 361.032 533.872 361.032C520.048 361.032 508.144 359.016 498.16 354.984C488.176 350.76 479.92 345.096 473.392 337.992C467.056 330.888 462.352 322.536 459.28 312.936C456.4 303.144 454.96 292.584 454.96 281.256ZM675.28 359.88C662.8 359.688 652.624 358.344 644.752 355.848C637.072 353.352 630.928 349.896 626.32 345.48C621.904 340.872 618.832 335.4 617.104 329.064C615.568 322.536 614.8 315.24 614.8 307.176V140.424L657.712 133.512V298.536C657.712 302.376 658 305.832 658.576 308.904C659.152 311.976 660.208 314.568 661.744 316.68C663.472 318.792 665.872 320.52 668.944 321.864C672.016 323.208 676.144 324.072 681.328 324.456L675.28 359.88ZM843.877 351.816C836.581 353.928 827.173 355.848 815.653 357.576C804.133 359.496 792.037 360.456 779.365 360.456C766.501 360.456 755.749 358.728 747.109 355.272C738.661 351.816 731.941 347.016 726.949 340.872C721.957 334.536 718.405 327.048 716.293 318.408C714.181 309.768 713.125 300.264 713.125 289.896V205.512H756.037V284.712C756.037 298.536 757.861 308.52 761.509 314.664C765.157 320.808 771.973 323.88 781.957 323.88C785.029 323.88 788.293 323.784 791.749 323.592C795.205 323.208 798.277 322.824 800.965 322.44V205.512H843.877V351.816ZM936.287 326.184C944.159 326.184 949.727 325.416 952.991 323.88C956.255 322.344 957.887 319.368 957.887 314.952C957.887 311.496 955.775 308.52 951.551 306.024C947.327 303.336 940.895 300.36 932.255 297.096C925.535 294.6 919.391 292.008 913.823 289.32C908.447 286.632 903.839 283.464 899.999 279.816C896.159 275.976 893.183 271.464 891.071 266.28C888.959 261.096 887.903 254.856 887.903 247.56C887.903 233.352 893.183 222.12 903.743 213.864C914.303 205.608 928.799 201.48 947.231 201.48C956.447 201.48 965.279 202.344 973.727 204.072C982.175 205.608 988.895 207.336 993.887 209.256L986.399 242.664C981.407 240.936 975.935 239.4 969.983 238.056C964.223 236.712 957.695 236.04 950.399 236.04C936.959 236.04 930.239 239.784 930.239 247.272C930.239 249 930.527 250.536 931.103 251.88C931.679 253.224 932.831 254.568 934.559 255.912C936.287 257.064 938.591 258.408 941.471 259.944C944.543 261.288 948.383 262.824 952.991 264.552C962.399 268.008 970.175 271.464 976.319 274.92C982.463 278.184 987.263 281.832 990.719 285.864C994.367 289.704 996.863 294.024 998.207 298.824C999.743 303.624 1000.51 309.192 1000.51 315.528C1000.51 330.504 994.847 341.832 983.519 349.512C972.383 357.192 956.543 361.032 935.999 361.032C922.559 361.032 911.327 359.88 902.303 357.576C893.471 355.272 887.327 353.352 883.871 351.816L891.071 316.968C898.367 319.848 905.855 322.152 913.535 323.88C921.215 325.416 928.799 326.184 936.287 326.184ZM1039.78 167.784L1082.69 160.872V205.512H1134.24V241.224H1082.69V294.504C1082.69 303.528 1084.23 310.728 1087.3 316.104C1090.56 321.48 1097 324.168 1106.6 324.168C1111.2 324.168 1115.91 323.784 1120.71 323.016C1125.7 322.056 1130.21 320.808 1134.24 319.272L1140.29 352.68C1135.11 354.792 1129.35 356.616 1123.01 358.152C1116.68 359.688 1108.9 360.456 1099.68 360.456C1087.97 360.456 1078.28 358.92 1070.6 355.848C1062.92 352.584 1056.77 348.168 1052.16 342.6C1047.56 336.84 1044.29 329.928 1042.37 321.864C1040.64 313.8 1039.78 304.872 1039.78 295.08V167.784ZM1165 282.408C1165 268.968 1167.02 257.256 1171.05 247.272C1175.28 237.096 1180.75 228.648 1187.47 221.928C1194.19 215.208 1201.87 210.12 1210.51 206.664C1219.34 203.208 1228.36 201.48 1237.58 201.48C1259.08 201.48 1276.08 208.104 1288.56 221.352C1301.04 234.408 1307.28 253.704 1307.28 279.24C1307.28 281.736 1307.18 284.52 1306.99 287.592C1306.8 290.472 1306.6 293.064 1306.41 295.368H1209.07C1210.03 304.2 1214.16 311.208 1221.45 316.392C1228.75 321.576 1238.54 324.168 1250.83 324.168C1258.7 324.168 1266.38 323.496 1273.87 322.152C1281.55 320.616 1287.79 318.792 1292.59 316.68L1298.35 351.528C1296.04 352.68 1292.97 353.832 1289.13 354.984C1285.29 356.136 1280.97 357.096 1276.17 357.864C1271.56 358.824 1266.57 359.592 1261.2 360.168C1255.82 360.744 1250.44 361.032 1245.07 361.032C1231.44 361.032 1219.53 359.016 1209.36 354.984C1199.37 350.952 1191.02 345.48 1184.3 338.568C1177.77 331.464 1172.88 323.112 1169.61 313.512C1166.54 303.912 1165 293.544 1165 282.408ZM1265.8 265.992C1265.61 262.344 1264.94 258.792 1263.79 255.336C1262.83 251.88 1261.2 248.808 1258.89 246.12C1256.78 243.432 1254 241.224 1250.54 239.496C1247.28 237.768 1243.15 236.904 1238.16 236.904C1233.36 236.904 1229.23 237.768 1225.77 239.496C1222.32 241.032 1219.44 243.144 1217.13 245.832C1214.83 248.52 1213 251.688 1211.66 255.336C1210.51 258.792 1209.64 262.344 1209.07 265.992H1265.8ZM1440.33 243.528C1436.49 242.568 1431.98 241.608 1426.79 240.648C1421.61 239.496 1416.04 238.92 1410.09 238.92C1407.4 238.92 1404.14 239.208 1400.3 239.784C1396.65 240.168 1393.86 240.648 1391.94 241.224V357H1349.03V213.576C1356.71 210.888 1365.74 208.392 1376.1 206.088C1386.66 203.592 1398.38 202.344 1411.24 202.344C1413.54 202.344 1416.33 202.536 1419.59 202.92C1422.86 203.112 1426.12 203.496 1429.38 204.072C1432.65 204.456 1435.91 205.032 1439.18 205.8C1442.44 206.376 1445.22 207.144 1447.53 208.104L1440.33 243.528ZM1521.22 334.248C1521.22 342.888 1518.44 349.512 1512.87 354.12C1507.49 358.536 1501.35 360.744 1494.44 360.744C1487.52 360.744 1481.28 358.536 1475.72 354.12C1470.34 349.512 1467.65 342.888 1467.65 334.248C1467.65 325.608 1470.34 319.08 1475.72 314.664C1481.28 310.056 1487.52 307.752 1494.44 307.752C1501.35 307.752 1507.49 310.056 1512.87 314.664C1518.44 319.08 1521.22 325.608 1521.22 334.248ZM1635.29 327.048C1639.52 327.048 1643.55 326.952 1647.39 326.76C1651.23 326.568 1654.3 326.28 1656.61 325.896V293.352C1654.88 292.968 1652.29 292.584 1648.83 292.2C1645.37 291.816 1642.21 291.624 1639.33 291.624C1635.29 291.624 1631.45 291.912 1627.81 292.488C1624.35 292.872 1621.28 293.736 1618.59 295.08C1615.9 296.424 1613.79 298.248 1612.25 300.552C1610.72 302.856 1609.95 305.736 1609.95 309.192C1609.95 315.912 1612.16 320.616 1616.57 323.304C1621.18 325.8 1627.42 327.048 1635.29 327.048ZM1631.84 201.48C1644.51 201.48 1655.07 202.92 1663.52 205.8C1671.97 208.68 1678.69 212.808 1683.68 218.184C1688.86 223.56 1692.51 230.088 1694.62 237.768C1696.73 245.448 1697.79 253.992 1697.79 263.4V352.68C1691.65 354.024 1683.1 355.56 1672.16 357.288C1661.21 359.208 1647.97 360.168 1632.41 360.168C1622.62 360.168 1613.69 359.304 1605.63 357.576C1597.76 355.848 1590.94 353.064 1585.18 349.224C1579.42 345.192 1575.01 340.008 1571.93 333.672C1568.86 327.336 1567.33 319.56 1567.33 310.344C1567.33 301.512 1569.05 294.024 1572.51 287.88C1576.16 281.736 1580.96 276.84 1586.91 273.192C1592.86 269.544 1599.68 266.952 1607.36 265.416C1615.04 263.688 1623.01 262.824 1631.26 262.824C1636.83 262.824 1641.73 263.112 1645.95 263.688C1650.37 264.072 1653.92 264.648 1656.61 265.416V261.384C1656.61 254.088 1654.4 248.232 1649.98 243.816C1645.57 239.4 1637.89 237.192 1626.94 237.192C1619.65 237.192 1612.45 237.768 1605.34 238.92C1598.24 239.88 1592.09 241.32 1586.91 243.24L1581.44 208.68C1583.93 207.912 1587.01 207.144 1590.65 206.376C1594.49 205.416 1598.62 204.648 1603.04 204.072C1607.45 203.304 1612.06 202.728 1616.86 202.344C1621.85 201.768 1626.85 201.48 1631.84 201.48ZM1788.15 357H1745.23V205.512H1788.15V357ZM1792.18 161.736C1792.18 169.608 1789.59 175.848 1784.4 180.456C1779.41 184.872 1773.46 187.08 1766.55 187.08C1759.63 187.08 1753.59 184.872 1748.4 180.456C1743.41 175.848 1740.91 169.608 1740.91 161.736C1740.91 153.864 1743.41 147.72 1748.4 143.304C1753.59 138.696 1759.63 136.392 1766.55 136.392C1773.46 136.392 1779.41 138.696 1784.4 143.304C1789.59 147.72 1792.18 153.864 1792.18 161.736Z" fill="#3E3E3E"/>
<circle cx="233" cy="253" r="136" fill="#2F6B76"/>
<mask id="mask0_2_2" style="mask-type:alpha" maskUnits="userSpaceOnUse" x="97" y="117" width="272" height="272">
<circle cx="233" cy="253" r="136" fill="#2F6B76"/>
</mask>
<g mask="url(#mask0_2_2)">
<circle cx="320.269" cy="340.906" r="136" fill="url(#paint0_linear_2_2)"/>
<circle cx="128.532" cy="377.852" r="136" fill="url(#paint1_linear_2_2)"/>
</g>
<defs>
<linearGradient id="paint0_linear_2_2" x1="320.269" y1="204.906" x2="320.269" y2="476.906" gradientUnits="userSpaceOnUse">
<stop stop-color="#F9DED4"/>
<stop offset="1" stop-color="#F9DED4" stop-opacity="0"/>
</linearGradient>
<linearGradient id="paint1_linear_2_2" x1="128.532" y1="241.852" x2="128.532" y2="513.852" gradientUnits="userSpaceOnUse">
<stop stop-color="#92C3BE"/>
<stop offset="1" stop-color="#92C3BE" stop-opacity="0"/>
</linearGradient>
</defs>
</svg>
